# xmcd
#
# Track frame offsets: 
#        150
#        10859
#        24224
#        35188
#        54878
#        67498
#        80636
#        94031
#        108033
#        120169
#        134243
#
# Disc length: 2004 seconds
#
# Revision: 0
# Processed by: cddbd v1.5.2PL0 Copyright (c) Steve Scherf et al.
# Submitted via: ExactAudioCopy v1.2
#
DISCID=8d07d20b
DTITLE=Lubos Bena and Bonzo Radvanyi - Slovak Blues Project
DYEAR=2019
DGENRE=Blues
TTITLE0=Bad Mon
TTITLE1=Don't Waste My Time
TTITLE2=Stále Prsí
TTITLE3=No Expectations
TTITLE4=Hey Doc
TTITLE5=Down on Me
TTITLE6=Walking the Dog
TTITLE7=What Have You Done
TTITLE8=The Letter
TTITLE9=I Woke up This Morning
TTITLE10=You Can't Judge a Book
EXTD=
EXTT0=
EXTT1=
EXTT2=
EXTT3=
EXTT4=
EXTT5=
EXTT6=
EXTT7=
EXTT8=
EXTT9=
EXTT10=
PLAYORDER=
